<svg xmlns="http://www.w3.org/2000/svg" width="26" height="30" viewBox="0 0 26 30">
  <path id="Icon_awesome-user-md" data-name="Icon awesome-user-md" d="M13,15A7.5,7.5,0,1,0,5.571,7.5,7.464,7.464,0,0,0,13,15ZM6.036,24.844a1.393,1.393,0,1,0,1.393-1.406A1.4,1.4,0,0,0,6.036,24.844ZM18.571,16.91v2.871a4.684,4.684,0,0,1,3.714,4.594v2.443a.938.938,0,0,1-.749.92l-1.869.375a.462.462,0,0,1-.546-.369l-.18-.92a.463.463,0,0,1,.366-.551l1.12-.229v-1.67a2.787,2.787,0,1,0-5.571.111v1.564l1.12.229a.475.475,0,0,1,.366.551l-.18.92a.471.471,0,0,1-.546.369l-1.811-.246a.933.933,0,0,1-.8-.932V24.375a4.688,4.688,0,0,1,3.714-4.594V17.133c-.128.041-.255.064-.383.111a9.95,9.95,0,0,1-6.662,0,6.362,6.362,0,0,0-1.312-.3v4.781a3.25,3.25,0,1,1-1.857,0V17.01A7.833,7.833,0,0,0,0,24.75v2.625A2.616,2.616,0,0,0,2.6,30H23.4A2.616,2.616,0,0,0,26,27.375V24.75A7.83,7.83,0,0,0,18.571,16.91Z" fill="#6f88a2"/>
</svg>
