<svg xmlns="http://www.w3.org/2000/svg" width="1551.682" height="1022.494" viewBox="0 0 1551.682 1022.494">
  <g id="Group_144" data-name="Group 144" transform="translate(4515.721 2450)" opacity="0.6">
    <path id="Path_212" data-name="Path 212" d="M61.952,396.83H206V592.771H72.5c-.355,2.011-.7,4.037-1.064,6.063H206V756.856c-.241-.071-.454-.156-.681-.241-3.8-1.5-7.579-3.088-11.354-4.788l-2.413-1.091q-5.677-2.677-11.354-5.666c-1.32-.694-2.64-1.417-3.946-2.153a236.136,236.136,0,0,1-56.6-44.137c-.483-.468-.937-.963-1.419-1.417-2.3-2.493-4.556-5.014-6.742-7.592l-2.413-2.833c-2.583-3.159-5.081-6.4-7.508-9.689-.355-.482-.7-.963-1.064-1.417a210.764,210.764,0,0,1-24.412-44.052c-.2-.467-.369-.977-.554-1.417q-2.924-7.507-5.18-15.156c-.653-2.139-1.277-4.249-1.817-6.473-.2-.652-.369-1.289-.525-1.926C59.951,575.405,59,542.784,59,510.389V499.057c0-13.1.156-26.29.383-39.463,0-3.414.142-6.813.213-10.241q.3-13.046.852-26.091c.085-2.422.2-4.83.326-7.238a40.914,40.914,0,0,1,.213-4.164C61.328,406.816,61.612,401.816,61.952,396.83Z" transform="translate(-4574.72 -2367.768)" fill="#6e293b" opacity="0.1"/>
    <path id="Path_213" data-name="Path 213" d="M185.913,272.113H106.9a597.822,597.822,0,0,1,42.026-57.736c11.737-14.391,24.128-28.414,36.987-41.928Z" transform="translate(-4554.635 -2461.217)" fill="#6e293b" opacity="0.1"/>
    <path id="Path_214" data-name="Path 214" d="M204.991,247.09V453.131H61.4c0-.595.1-1.2.142-1.8.128-1.629.255-3.258.4-4.873.156-1.9.326-3.81.511-5.666s.383-4.122.6-6.176.412-4.136.653-6.19.454-4.108.71-6.148.483-4.108.752-6.147c.213-1.7.44-3.385.667-5.085.326-2.394.667-4.8,1.036-7.181a6.611,6.611,0,0,1,.156-1.062,489.106,489.106,0,0,1,10.574-51.73,382.039,382.039,0,0,1,17.812-52.41,393.149,393.149,0,0,1,26.8-51.5Z" transform="translate(-4573.714 -2430.132)" fill="#6e293b" opacity="0.1"/>
    <path id="Path_215" data-name="Path 215" d="M186.8,537.671V733.627H494.462V537.671Zm0,202V907.953c1.76.368,3.506.722,5.237,1.02,2.356.453,4.7.864,7.1,1.218.454.071.923.142,1.419.184.937.156,1.9.283,2.839.411,2.37.326,4.726.595,7.1.807,1.121.113,2.257.212,3.392.3l2.739.212h0c1.49.113,2.966.2,4.428.241.908,0,1.817.085,2.753.113h10.12c1.221,0,2.441,0,3.648-.113h.085a19.156,19.156,0,0,0,2.541-.113,5.908,5.908,0,0,0,.71,0,14.7,14.7,0,0,0,2.1-.1h.5l4.755-.368c1.561-.142,3.137-.326,4.726-.5l3.236-.382a283.583,283.583,0,0,0,38.96-8.272c28.7-7.989,56.772-19.165,85.456-27.352,37.086-10.553,78.062-15.737,113.9-2.833V739.675ZM494.462,319.52V58.647a396.27,396.27,0,0,0-99.962,11.7c-77.905,19.533-147.806,61.9-207.7,116.01V319.505h15.442v6.048H186.8V531.623H494.462V325.568H265.642V319.52ZM889.639,231.4c-19.274-.68-38.435-6.771-55.764-16.176-33.141-17.989-59.611-45.766-89.189-69.209-61.456-48.826-137.672-78.289-215.862-85.6v259.1h439.2l1.093-1.147Zm40.01-7.082,42.423,46.46V212.136c-14.207,1.756-26.655,5.935-42.366,12.125Zm42.423,725.421V739.675h-90.4c-.241-.892-.483-1.8-.766-2.705.27.907.5,1.813.752,2.705H528.88V891.593c3.349,2.479,6.657,5.085,9.935,7.734h0c3.534,2.833,7.026,5.822,10.531,8.754L552.881,911c1.689,1.416,3.392,2.833,5.109,4.165q5.11,4.136,10.318,8.159c1.717,1.416,3.477,2.691,5.223,4.023A711.552,711.552,0,0,0,661,984.443q10.262,5.666,20.708,11.063c4.641,2.365,9.311,4.717,13.994,7q10.56,5.142,21.289,9.915h0a782.991,782.991,0,0,0,207.218,60.243q23.83,3.513,47.845,5.524V949.725h1.419ZM528.88,325.568V531.623H972.129V325.568Zm0,212.1V733.627H972.129V537.671Zm477.652-325.79v65.413L1060.679,218q-26.91-4.334-54.147-6.19Zm0,325.861V733.627h431.113V537.671Zm429.538,427.55,1.519-225.617H1006.533v340.762a774.649,774.649,0,0,0,83.313-.991h.483q19.87-1.247,39.556-3.626h.3a729.593,729.593,0,0,0,203.244-54.124m187.348-451.757c-1.618-3.81-3.307-7.592-5.024-11.332-3.208-7.082-6.6-13.966-10.091-20.851h-33.637V733.627h85.045c-.043-55.469-14.108-112.128-36.249-163.759Zm-48.753,169.807V933.8c23.958-22.919,44.2-49.138,58.773-79.11,17.529-36.092,25.548-75.172,26.2-114.975Zm0-259.1v50.993h30.487a552.176,552.176,0,0,0-30.444-51.064ZM1179.645,250.325c-2.243-.85-4.485-1.714-6.742-2.55a616.356,616.356,0,0,0-72.824-21.842l-82.859,90.754h0l-1.59,1.686,1.064,1.161h294.9a631.2,631.2,0,0,0-131.91-69.28Zm140.6,75.314H1012.579l-6.046,5.524v200.46H1437.7v-97.1a613.8,613.8,0,0,0-117.419-108.955Z" transform="translate(-4521.133 -2508.624)" fill="#6e293b" opacity="0.1"/>
    <path id="Path_216" data-name="Path 216" d="M204.991,320.46V422.574H61.4c0-.595.1-1.2.142-1.8.128-1.629.255-3.258.4-4.873.156-1.9.326-3.81.511-5.666s.383-4.122.6-6.176.412-4.136.653-6.19.454-4.108.71-6.148.483-4.108.752-6.147c.213-1.7.44-3.385.667-5.085.326-2.394.667-4.8,1.036-7.182a6.611,6.611,0,0,1,.156-1.062,489.106,489.106,0,0,1,10.574-51.73Z" transform="translate(-4573.714 -2399.574)" fill="#6e293b" opacity="0.1"/>
    <path id="Path_217" data-name="Path 217" d="M61.952,396.83H206V592.771H72.5c-.355,2.011-.7,4.037-1.064,6.063H206V756.856c-.241-.071-.454-.156-.681-.241-3.8-1.5-7.579-3.088-11.354-4.788l-2.413-1.091q-5.677-2.677-11.354-5.666c-1.32-.694-2.64-1.417-3.946-2.153a236.136,236.136,0,0,1-56.6-44.137c-.483-.468-.937-.963-1.419-1.417-2.3-2.493-4.556-5.014-6.742-7.592l-2.413-2.833c-2.583-3.159-5.081-6.4-7.508-9.689-.355-.482-.7-.963-1.064-1.417a210.764,210.764,0,0,1-24.412-44.052c-.2-.467-.369-.977-.554-1.417q-2.924-7.507-5.18-15.156c-.653-2.139-1.277-4.249-1.817-6.473-.2-.652-.369-1.289-.525-1.926C59.951,575.405,59,542.784,59,510.389V499.057c0-13.1.156-26.29.383-39.463,0-3.414.142-6.813.213-10.241q.3-13.046.852-26.091c.085-2.422.2-4.83.326-7.238a40.914,40.914,0,0,1,.213-4.164C61.328,406.816,61.612,401.816,61.952,396.83Z" transform="translate(-4574.72 -2367.768)" fill="#6e293b" opacity="0.1"/>
    <path id="Path_218" data-name="Path 218" d="M247.867,226.855v176.55H139.56V226.855H155V167.08h63.386v59.775Z" transform="translate(-4473.893 -2380.406)" fill="#6e293b" opacity="0.1"/>
    <rect id="Rectangle_159" data-name="Rectangle 159" width="108.293" height="195.941" transform="translate(-4334.319 -1970.952)" fill="#6e293b" opacity="0.1"/>
    <path id="Path_219" data-name="Path 219" d="M186.8,539.44H295.107v162.9a283.091,283.091,0,0,1-38.96,8.258l-3.236.4c-1.59.184-3.165.34-4.726.5s-3.179.269-4.755.368h-.5c-.681,0-1.419.085-2.086.1h-.724c-.852,0-1.7.085-2.555.113h0c-1.206.071-2.413.085-3.648.1H223.872l-2.739-.1c-1.419,0-2.952-.156-4.428-.255h0l-2.725-.2-3.392-.312c-2.384-.212-4.755-.482-7.1-.807l-2.839-.4-1.419-.2c-2.37-.368-4.712-.765-7.1-1.218-1.746-.3-3.477-.666-5.237-1.02Z" transform="translate(-4521.133 -2308.374)" fill="#6e293b" opacity="0.1"/>
    <rect id="Rectangle_160" data-name="Rectangle 160" width="89.303" height="197.386" transform="translate(-3638.307 -2174.401)" fill="#6e293b" opacity="0.1"/>
    <path id="Path_220" data-name="Path 220" d="M823.843,338.19V534.146H380.58V449.624h236.1v49.86H734.526V338.19Z" transform="translate(-4372.833 -2309.142)" fill="#6e293b" opacity="0.1"/>
    <path id="Path_221" data-name="Path 221" d="M872.488,750.328h-1.419V878.873q-23.986-2.026-47.831-5.51a783.022,783.022,0,0,1-207.3-60.37q-28.571-12.833-55.977-28.018a714.429,714.429,0,0,1-87.486-57.1q-10.446-7.989-20.622-16.346c-4.7-3.867-9.367-7.833-14.094-11.686-3.279-2.649-6.586-5.255-9.935-7.748V540.235H780.588c-.241-.907-.483-1.813-.738-2.705.27.892.525,1.8.766,2.705h90.452V750.242C871.551,750.257,872.019,750.3,872.488,750.328Z" transform="translate(-4420.073 -2309.169)" fill="#6e293b" opacity="0.1"/>
    <path id="Path_222" data-name="Path 222" d="M921.411,263.921H863.22V245.875h26.087V192.12q3.392,1.232,6.756,2.535v51.22h25.349Z" transform="translate(-4237.509 -2453.025)" fill="#6e293b" opacity="0.1"/>
    <path id="Path_223" data-name="Path 223" d="M1103.063,453.131H817.385l.1.071-.128-.071h-53V255.745h15.016v145.9H848V315.237h56.687V247.09h58.191v68.2h56.687V401.7h83.5Z" transform="translate(-4278.96 -2430.132)" fill="#6e293b" opacity="0.1"/>
    <path id="Path_224" data-name="Path 224" d="M764.36,396.82V592.776h338.7V396.82Zm430.645,426.615.468-155.1h-92.411V598.923H764.36V939.586a774.665,774.665,0,0,0,83.313-.991h.483q19.87-1.247,39.556-3.626h.3a729.6,729.6,0,0,0,203.245-54.124" transform="translate(-4278.96 -2367.772)" fill="#6e293b" opacity="0.1"/>
    <path id="Path_225" data-name="Path 225" d="M1098.331,539.44h79.013c-.7,39.789-8.7,78.87-26.214,114.961-14.576,29.987-34.83,56.206-58.759,79.11V608.862h5.961Z" transform="translate(-4141.425 -2308.374)" fill="#6e293b" opacity="0.1"/>
    <path id="Path_226" data-name="Path 226" d="M1175.625,583.309H1096.57V419.55h42.778C1161.489,471.181,1175.554,527.84,1175.625,583.309Z" transform="translate(-4139.664 -2358.306)" fill="#6e293b" opacity="0.1"/>
    <rect id="Rectangle_161" data-name="Rectangle 161" width="47.845" height="61.886" transform="translate(-3596.835 -2119.527)" fill="#6e293b" opacity="0.1"/>
    <rect id="Rectangle_162" data-name="Rectangle 162" width="47.845" height="14.25" transform="translate(-3596.835 -1991.251)" fill="#6e293b" opacity="0.1"/>
    <rect id="Rectangle_163" data-name="Rectangle 163" width="47.845" height="41.574" transform="translate(-3596.835 -1970.952)" fill="#6e293b" opacity="0.1"/>
    <rect id="Rectangle_164" data-name="Rectangle 164" width="47.845" height="61.886" transform="translate(-3596.835 -1862.974)" fill="#6e293b" opacity="0.1"/>
    <rect id="Rectangle_165" data-name="Rectangle 165" width="47.845" height="61.886" transform="translate(-3596.835 -1734.698)" fill="#6e293b" opacity="0.1"/>
    <path id="Path_227" data-name="Path 227" d="M754.251,701.665a7.883,7.883,0,0,1,1.419.085h-1.419v14.377H706.42V654.17h47.83Z" transform="translate(-4303.255 -2260.592)" fill="#6e293b" opacity="0.1"/>
    <path id="Path_228" data-name="Path 228" d="M754.251,744.71v47.806q-23.986-2.026-47.83-5.51v-42.3Z" transform="translate(-4303.255 -2222.883)" fill="#6e293b" opacity="0.1"/>
    <rect id="Rectangle_166" data-name="Rectangle 166" width="205.047" height="4.547" transform="translate(-3992.252 -1779.543)" fill="#6e293b" opacity="0.1"/>
    <rect id="Rectangle_167" data-name="Rectangle 167" width="205.047" height="17.423" transform="translate(-3992.252 -1768.948)" fill="#6e293b" opacity="0.1"/>
    <rect id="Rectangle_168" data-name="Rectangle 168" width="205.047" height="28.018" transform="translate(-3992.252 -1694.413)" fill="#6e293b" opacity="0.1"/>
    <path id="Path_229" data-name="Path 229" d="M629.922,652.15v28.018H469.54q-10.446-7.961-20.637-16.346c-4.7-3.867-9.353-7.833-14.094-11.672Z" transform="translate(-4417.142 -2261.433)" fill="#6e293b" opacity="0.1"/>
    <path id="Path_230" data-name="Path 230" d="M593.816,712.253v27.99H576.883q-28.542-12.848-55.963-28.032Z" transform="translate(-4381.036 -2236.419)" fill="#6e293b" opacity="0.1"/>
    <rect id="Rectangle_169" data-name="Rectangle 169" width="40.365" height="40.285" transform="translate(-3431.273 -1951.957)" fill="#6e293b" opacity="0.1"/>
    <rect id="Rectangle_170" data-name="Rectangle 170" width="40.365" height="40.285" transform="translate(-4305.251 -2139.655)" fill="#6e293b" opacity="0.1"/>
    <rect id="Rectangle_171" data-name="Rectangle 171" width="40.365" height="40.285" transform="translate(-4305.251 -2046.082)" fill="#6e293b" opacity="0.1"/>
    <rect id="Rectangle_172" data-name="Rectangle 172" width="40.365" height="40.285" transform="translate(-4305.251 -1952.51)" fill="#6e293b" opacity="0.1"/>
    <rect id="Rectangle_173" data-name="Rectangle 173" width="40.365" height="40.285" transform="translate(-4305.251 -1858.951)" fill="#6e293b" opacity="0.1"/>
    <rect id="Rectangle_174" data-name="Rectangle 174" width="40.365" height="40.285" transform="translate(-4305.251 -1765.379)" fill="#6e293b" opacity="0.1"/>
    <rect id="Rectangle_175" data-name="Rectangle 175" width="40.365" height="40.285" transform="translate(-4305.251 -1671.806)" fill="#6e293b" opacity="0.1"/>
    <rect id="Rectangle_176" data-name="Rectangle 176" width="40.365" height="40.285" transform="translate(-3277.179 -1951.957)" fill="#6e293b" opacity="0.1"/>
    <rect id="Rectangle_177" data-name="Rectangle 177" width="40.365" height="40.285" transform="translate(-3431.273 -1852.591)" fill="#6e293b" opacity="0.1"/>
    <rect id="Rectangle_178" data-name="Rectangle 178" width="40.365" height="40.285" transform="translate(-3277.179 -1852.591)" fill="#6e293b" opacity="0.1"/>
    <rect id="Rectangle_179" data-name="Rectangle 179" width="40.365" height="40.285" transform="translate(-3431.273 -1753.24)" fill="#6e293b" opacity="0.1"/>
    <rect id="Rectangle_180" data-name="Rectangle 180" width="40.365" height="40.285" transform="translate(-3277.179 -1753.24)" fill="#6e293b" opacity="0.1"/>
    <rect id="Rectangle_181" data-name="Rectangle 181" width="40.365" height="40.285" transform="translate(-3431.273 -1653.874)" fill="#6e293b" opacity="0.1"/>
    <rect id="Rectangle_182" data-name="Rectangle 182" width="40.365" height="40.285" transform="translate(-3277.179 -1653.874)" fill="#6e293b" opacity="0.1"/>
    <rect id="Rectangle_183" data-name="Rectangle 183" width="40.365" height="40.285" transform="translate(-3431.273 -1554.508)" fill="#6e293b" opacity="0.1"/>
    <rect id="Rectangle_184" data-name="Rectangle 184" width="40.365" height="40.285" transform="translate(-3277.179 -1554.508)" fill="#6e293b" opacity="0.1"/>
    <path id="Path_231" data-name="Path 231" d="M775.83,728.308V702.33h40.351v22.281Z" transform="translate(-4207.103 -2157.486)" fill="#6e293b" opacity="0.1"/>
    <path id="Path_232" data-name="Path 232" d="M65.24,357v23.046H203.381V357Zm13.767,21.6H67.738V358.417H79.092Zm13.753,0H81.406V358.417H92.76Zm13.725,0H95.131V358.417h11.354Zm13.753,0H108.9V358.417h11.354Zm13.739,0H122.622V358.417h11.354Zm13.753,0H136.375V358.417H147.73Zm13.753,0H150.129V358.417h11.354Zm13.739,0H163.867V358.417h11.354Zm13.739,0H177.606V358.417h11.354Zm13.739,0H191.345V358.417H202.7Z" transform="translate(-4572.104 -2384.356)" fill="#6e293b" opacity="0.1"/>
    <path id="Path_233" data-name="Path 233" d="M65.24,404.34v23.046H203.381V404.34Zm13.767,21.587H67.738V405.8H79.092Zm13.753,0H81.406V405.8H92.76Zm13.725,0H95.131V405.8h11.354Zm13.753,0H108.9V405.8h11.354Zm13.739,0H122.622V405.8h11.354Zm13.753,0H136.375V405.8H147.73Zm13.753,0H150.129V405.8h11.354Zm13.739,0H163.867V405.8h11.354Zm13.739,0H177.606V405.8h11.354Zm13.739,0H191.345V405.8H202.7Z" transform="translate(-4572.104 -2364.64)" fill="#6e293b" opacity="0.1"/>
    <path id="Path_234" data-name="Path 234" d="M65.24,451.7v23.089H203.381V451.7Zm13.767,21.587H67.738V453.145H79.092Zm13.753,0H81.406V453.145H92.76Zm13.725,0H95.131V453.145h11.354Zm13.753,0H108.9V453.145h11.354Zm13.739,0H122.622V453.145h11.354Zm13.753,0H136.375V453.145H147.73Zm13.753,0H150.129V453.145h11.354Zm13.739,0H163.867V453.145h11.354Zm13.739,0H177.606V453.145h11.354Zm13.739,0H191.345V453.145H202.7Z" transform="translate(-4572.104 -2344.916)" fill="#6e293b" opacity="0.1"/>
    <path id="Path_235" data-name="Path 235" d="M65.24,499.06v23.018H203.381V499.06Zm13.767,21.587H67.738V500.491H79.092Zm13.753,0H81.406V500.491H92.76Zm13.725,0H95.131V500.491h11.354Zm13.753,0H108.9V500.491h11.354Zm13.739,0H122.622V500.491h11.354Zm13.753,0H136.375V500.491H147.73Zm13.753,0H150.129V500.491h11.354Zm13.739,0H163.867V500.491h11.354Zm13.739,0H177.606V500.491h11.354Zm13.739,0H191.345V500.491H202.7Z" transform="translate(-4572.104 -2325.192)" fill="#6e293b" opacity="0.1"/>
    <path id="Path_236" data-name="Path 236" d="M65.66,546.41c.554,2.167,1.178,4.334,1.831,6.473v-5.029H78.845V568H72.771c.185.467.369.977.554,1.416H203.2v-23ZM92.627,568H81.272V547.855H92.627Zm13.725,0H95V547.855h11.354Zm13.753,0H108.722V547.855h11.354Zm13.739,0H122.489V547.855h11.354Zm13.753,0H136.242V547.855H147.6Zm13.753,0H149.995V547.855h11.354Zm13.739,0H163.734V547.855h11.354Zm13.739,0H177.473V547.855h11.354Zm13.739,0H191.212V547.855h11.354Z" transform="translate(-4571.927 -2305.471)" fill="#6e293b" opacity="0.1"/>
    <path id="Path_237" data-name="Path 237" d="M88.26,593.77c.355.453.7.963,1.064,1.417h7.508v9.675c.809.963,1.6,1.926,2.427,2.833V595.13h11.354v20.213h-4.6c.454.467.894.963,1.419,1.417h86.336V593.77Zm36.064,21.573H112.97V595.215h11.354Zm13.753,0H126.723V595.215h11.354Zm13.753,0H140.476V595.215h11.354Zm13.739,0H154.215V595.215h11.354Zm13.739,0H167.954V595.215h11.354Zm13.739,0H181.693V595.215h11.354Z" transform="translate(-4562.451 -2285.747)" fill="#6e293b" opacity="0.1"/>
    <path id="Path_238" data-name="Path 238" d="M141.65,641.12c1.292.737,2.612,1.417,3.946,2.153v-.708H156.95v6.374l2.413,1.119v-7.493h11.354v12.253a3.567,3.567,0,0,0,.681.255V641.12Z" transform="translate(-4540.064 -2266.027)" fill="#6e293b" opacity="0.1"/>
    <path id="Path_239" data-name="Path 239" d="M1054.979,454.926ZM967.55,872.985ZM876.331,660.273c.27.907.5,1.813.752,2.705h0C876.856,662.086,876.615,661.179,876.331,660.273Zm178.648-205.389ZM197.72,242.78v6.048h63.4V242.78ZM967.55,872.985ZM876.331,660.273c.27.907.5,1.813.752,2.705h0C876.856,662.086,876.615,661.179,876.331,660.273Zm178.648-205.389ZM967.55,872.943Zm-91.219-212.67c.27.907.5,1.813.752,2.705h0C876.856,662.086,876.615,661.179,876.331,660.273Z" transform="translate(-4516.554 -2431.926)" fill="#6e293b" opacity="0.1"/>
    <path id="Path_325" data-name="Path 325" d="M881.39,451Z" transform="translate(-4229.89 -2345.207)" fill="#ffb0b1"/>
    <path id="Path_326" data-name="Path 326" d="M880.74,451.839l.426-.439Z" transform="translate(-4230.163 -2345.041)" fill="#ffb0b1"/>
  </g>
</svg>
