<svg xmlns="http://www.w3.org/2000/svg" width="100" height="63.744" viewBox="0 0 100 63.744">
  <g id="Group_268" data-name="Group 268" transform="translate(3920.389 -2740.891)">
    <path id="Path_583" data-name="Path 583" d="M440.547,584.31H452.86a1.047,1.047,0,0,1,1.047,1.047V592H439.5v-6.646A1.047,1.047,0,0,1,440.547,584.31Z" transform="translate(-4332.95 2182.413)" fill="#ff5061"/>
    <path id="Path_584" data-name="Path 584" d="M439.5,629.048V627.53l1.568,1.518Z" transform="translate(-4333.104 2145.696)" fill="#fc7e85"/>
    <path id="Path_585" data-name="Path 585" d="M530.977,629.048V627.53l-1.568,1.518Z" transform="translate(-4409.677 2145.696)" fill="#fc7e85"/>
    <path id="Path_586" data-name="Path 586" d="M439.5,585.357v.382h14.415v-.382a1.047,1.047,0,0,0-1.047-1.047h-12.32A1.047,1.047,0,0,0,439.5,585.357Z" transform="translate(-4332.95 2182.129)" fill="#fc7e85"/>
    <path id="Path_635" data-name="Path 635" d="M0,22.18" transform="translate(-3854.048 2730.043)" fill="none" stroke="#2f170b" stroke-linecap="round" stroke-width="6"/>
    <path id="Path_595" data-name="Path 595" d="M495.9,584.31h-1.723a1.113,1.113,0,0,0-.116.539c0,.347.463.694.463.694a3.78,3.78,0,0,0,1.157.077C495.9,585.517,495.9,584.31,495.9,584.31Z" transform="translate(-4379.571 2182.125)" fill="#fc7e85"/>
    <g id="Patient_Head_Male_Side" data-name="Patient/Head/Male/Side" transform="translate(-3912.132 2753.298)">
      <path id="Path_606" data-name="Path 606" d="M335.463,500.645a5.271,5.271,0,0,1,.84.124c1.615.366,1.846.633,3.2-.06,0,0,1.26-.417.9.807a1.388,1.388,0,0,0,.644.276c.494.129,3.055.177,1.429,3.458a.429.429,0,0,0,.323.61l4.354.246-1.179,4.42-7.593-2.1s.1-1.219.143-1.37c0,0-2.151.743-2.053-.454a1.1,1.1,0,0,1,1.182-1.106l.067-.444-3.221-.844Z" transform="translate(-331.959 -500.453)" fill="#ea9d7d"/>
      <path id="Path_607" data-name="Path 607" d="M323.313,507.47l1.422.249s-.73-1.13-1-1.658a.329.329,0,0,0-.382-.166c-.653.186-2.2.527-2.119-.417s1.176-.99,1.655-.97a.243.243,0,0,0,.251-.206h0a.24.24,0,0,0-.18-.271l-1.87-.464a1.878,1.878,0,0,1-1.332-2.308l.323-1.2a.647.647,0,0,1,.742-.469h0a1.836,1.836,0,0,0-1.7-.1,4.116,4.116,0,0,0-2.243,3c-.286,1.179-.249,2.944.564,3.4.2.111.73.393.73.393a2.159,2.159,0,0,0,.244,1.032c.453.587,1.806.5,3.479.38A5.338,5.338,0,0,0,323.313,507.47Z" transform="translate(-316.716 -499.326)" fill="#000001"/>
      <path id="Path_608" data-name="Path 608" d="M349.486,504.509c-.041-.354-.04-.683-.047-1.013l-.01-.493c0-.167-.013-.332-.007-.513a1.414,1.414,0,0,1,.23.479,2.1,2.1,0,0,1,.073.523,2.294,2.294,0,0,1-.051.523A1.611,1.611,0,0,1,349.486,504.509Z" transform="translate(-344.747 -502.038)" fill="#000001"/>
      <path id="Path_609" data-name="Path 609" d="M379.99,509.627c-.136-.214-.306-.953-.2-1.017l.047.013a7.3,7.3,0,0,1,.869.2C380.7,509.259,379.993,509.635,379.99,509.627Z" transform="translate(-370.75 -507.283)" fill="#be3e5f"/>
      <path id="Path_610" data-name="Path 610" d="M351.44,538.67a.816.816,0,0,0-.264.454.234.234,0,0,0,.079.2.467.467,0,0,0,.226.084,1.6,1.6,0,0,0,.534-.009,1.184,1.184,0,0,0,.262-.071.408.408,0,0,0,.219-.157.4.4,0,0,1-.186.22,1.019,1.019,0,0,1-.269.117,1.342,1.342,0,0,1-.584.042.58.58,0,0,1-.286-.124.337.337,0,0,1-.1-.313.687.687,0,0,1,.37-.44Z" transform="translate(-346.155 -533.048)" fill="#d18165"/>
      <path id="Path_611" data-name="Path 611" d="M383.356,535.435c-.3.669-3.707,1.03-4.94.957s-1.187-.6-1.187-.6a7.256,7.256,0,0,0,1.839-1.956h0a.429.429,0,0,0,.36.484l3.858.18A1.273,1.273,0,0,1,383.356,535.435Z" transform="translate(-368.582 -528.908)" fill="#d18165"/>
      <path id="Path_612" data-name="Path 612" d="M356.491,506.793c0-.106-.016-.189-.023-.273s-.013-.166-.014-.249a1.95,1.95,0,0,1,.009-.256,1.1,1.1,0,0,1,.059-.286.681.681,0,0,1,.163.249.838.838,0,0,1,.056.286.733.733,0,0,1-.051.286.429.429,0,0,1-.2.243Z" transform="translate(-350.775 -504.815)" fill="#000001"/>
      <path id="Path_613" data-name="Path 613" d="M379.02,514.581c-.1-.037-.18-.059-.26-.086s-.157-.054-.234-.086a1.97,1.97,0,0,1-.23-.11,1.074,1.074,0,0,1-.236-.164.651.651,0,0,1,.293-.051.8.8,0,0,1,.286.062.737.737,0,0,1,.247.163A.429.429,0,0,1,379.02,514.581Z" transform="translate(-369.294 -511.974)" fill="#d18165"/>
    </g>
    <path id="Path_614" data-name="Path 614" d="M3.244,2.131A6.8,6.8,0,0,1,4.925,6.586a2.322,2.322,0,0,0,.542,1.572,3.362,3.362,0,0,1,.4.674c.26.6.557,1.616-.121,2.123A6.516,6.516,0,0,1,4.3,11.6,7.7,7.7,0,0,1,2.7,12C2.133,11.033.83,8.454,0,8.354A3.8,3.8,0,0,0,.394,7.1c.037-.151.066-.306.091-.462.017-.13.033-.259.047-.39.017-.167.031-.336.041-.509C.663,3.994.359,2.072.432.856.562-1.044,1.928.6,3.244,2.131Z" transform="matrix(0.966, 0.259, -0.259, 0.966, -3833.037, 2742.464)" fill="#ea9d7d"/>
    <path id="Path_615" data-name="Path 615" d="M0,20.729S15.811,8.612,17.27,7.653,36.69,0,36.69,0s2.333,1.758,2.7,3.815c0,0-12.86,7.53-16.014,9.154l-5.634,3.054S2.634,22.4,0,20.729Z" transform="matrix(0.966, 0.259, -0.259, 0.966, -3870.493, 2740.891)" fill="#854d5c"/>
    <path id="Path_616" data-name="Path 616" d="M0,19.322l.553-.429a6.68,6.68,0,0,0,2.736,1.63A9.262,9.262,0,0,0,9.7,19.866c3.328-1.6,3.364-4.118,6.493-7.049.653-.612-7.68-1.049-7.116-1.16a119.711,119.711,0,0,0,16.947-4.6A33.951,33.951,0,0,0,38.142,0a5.449,5.449,0,0,1,1.252,2.4s-12.86,7.53-16.014,9.154l-5.634,3.054S2.634,20.994,0,19.322Z" transform="matrix(0.966, 0.259, -0.259, 0.966, -3870.858, 2742.251)" fill="#6e293b"/>
    <path id="Path_617" data-name="Path 617" d="M834.22,524.651a6.8,6.8,0,0,1-1.329,4.573,2.341,2.341,0,0,0-.513,1.586,3.269,3.269,0,0,1-.081.782c-.151.637-.524,1.628-1.37,1.625a6.429,6.429,0,0,1-1.543-.356,7.687,7.687,0,0,1-1.523-.633c.126-1.122.632-3.964.029-4.543a3.768,3.768,0,0,0,1.07-.769c.119-.1.236-.2.349-.314s.182-.187.272-.286c.114-.123.227-.25.339-.383,1.117-1.34,2.026-3.061,2.819-3.987C833.983,520.5,834.087,522.633,834.22,524.651Z" transform="translate(-4663.34 2235.419)" fill="#ea9d7d"/>
    <path id="Path_618" data-name="Path 618" d="M530.992,525.555s19.921-.2,21.662-.1,20.128,5.534,20.128,5.534.812,2.8-.129,4.673c0,0-14.811-1.7-18.3-2.286l-6.339-.939s-11.583,3.905-14.3,3.324A12.742,12.742,0,0,1,530,534.336S532.1,528.471,530.992,525.555Z" transform="translate(-4409.029 2232.044)" fill="#854d5c"/>
    <path id="Path_619" data-name="Path 619" d="M533.715,536.5A12.738,12.738,0,0,1,530,535.066s2.088-5.859.983-8.779l.7-.007a6.675,6.675,0,0,0,1.212,2.944,9.256,9.256,0,0,0,5.52,3.321c3.621.714,5.161-1.276,9.422-1.742a15.034,15.034,0,0,1,2.122-.037,36.373,36.373,0,0,1,9.206,1.333,33.938,33.938,0,0,0,13.933,1.625,5.457,5.457,0,0,1-.443,2.675s-14.811-1.7-18.3-2.286l-6.339-.939S536.43,537.077,533.715,536.5Z" transform="translate(-4409.029 2231.323)" fill="#854d5c"/>
    <g id="Patient_Torso_Side" data-name="Patient/Torso/Side" transform="translate(-3899.995 2755.331)">
      <path id="Path_621" data-name="Path 621" d="M409.485,513.342c-5.367-.877-5.248-2.715-8.588-1.689a36.514,36.514,0,0,0-6.453,3.512,15.326,15.326,0,0,1,1.618.134c.457.16-.81,1.466-2.932,3.659a2.507,2.507,0,0,1,.682.333,2.157,2.157,0,0,1,.534.633,4.89,4.89,0,0,0,2.391,2.092,21.2,21.2,0,0,0,2.2.766,33.011,33.011,0,0,0,5.761,1.037,22.116,22.116,0,0,1,5.014.62c1.143.314,1.316.493,1.685.429,1.143-.2,2.342-2.409,2.795-10.883a.6.6,0,0,0-.792-.606A8.8,8.8,0,0,1,409.485,513.342Z" transform="translate(-393.13 -511.35)" fill="#6e293b" opacity="0.8"/>
      <path id="Path_622" data-name="Path 622" d="M433.639,544.866l-.583,3.728a11.036,11.036,0,0,1-.6,1.915,51.84,51.84,0,0,1-6.627-.286l-7.073-2.172a3.335,3.335,0,0,1-1.955-1.462,2.836,2.836,0,0,1,.662-4.011l.85-.483a5.328,5.328,0,0,1,3.977-.529l5.584,1.313c.456.069.636-.183.9.194a.727.727,0,0,0,.267.267,14.775,14.775,0,0,0,4.671.732C433.694,544.34,433.666,544.608,433.639,544.866Z" transform="translate(-412.95 -537.102)" fill="#6e293b"/>
      <path id="Path_623" data-name="Path 623" d="M477.849,529.616a3.425,3.425,0,0,0-.779.154c-2.116.687-10.217,3.225-14.289,3.259-1.3.011-8.445-1.509-8.445-1.509l-.656-5.43,8.931,1.935a3.882,3.882,0,0,0,1.206.069l12.51-1.229a1.154,1.154,0,0,0,.857-.516,13.456,13.456,0,0,1,1.925-2.539c.374-.1,1.1-.046-.077,1.715a1.667,1.667,0,0,0,1.022-.063c.736-.2,3.547-1.04,3.671-.827s.959.5-2.869,1.616c0,0-.073.4.26.31s3.492-.959,3.286-.459-.682.54-3.189,1.256c0,0-.114.322.021.33s3.156-.714,3.224-.463.692.417-3.654,1.359c0,0-.023.161.447.17s2.515-.027,2.076.336-.529.276-2.918.269l-2.562.263Z" transform="translate(-445.028 -522.004)" fill="#ea9d7d"/>
      <path id="Path_624" data-name="Path 624" d="M432.041,543.927a.612.612,0,0,1-.763.413l-6.952-2.118-.02-.007a2.355,2.355,0,0,1-.359-4.26l.6-.343a4.858,4.858,0,0,1,3.621-.482l5.238,1.357a.2.2,0,0,1,.143.254Z" transform="translate(-418.524 -533.314)" fill="#854d5c"/>
      <path id="Path_625" data-name="Path 625" d="M423.11,541.756l-.236-.077-.117-.04-.111-.057-.221-.12a1.563,1.563,0,0,1-.2-.151,1.275,1.275,0,0,1-.187-.174,1.357,1.357,0,0,1-.17-.193l-.143-.211c-.044-.076-.08-.154-.12-.232a2.494,2.494,0,0,1-.024-2.045,2.325,2.325,0,0,1,.63-.847l.1-.089c.034-.029.073-.049.11-.074l.221-.143c.143-.081.286-.154.429-.231s.286-.156.44-.229a4.507,4.507,0,0,1,1.446-.394,6.238,6.238,0,0,1,1.963.117c.632.143,1.275.244,1.908.38s1.256.313,1.878.5c.31.093.619.19.926.294.154.05.307.106.46.159l.114.043a.336.336,0,0,1,.127.067.237.237,0,0,1,.06.263l-.041-.011a.167.167,0,0,0-.081-.171.979.979,0,0,0-.216-.044c-.16-.027-.32-.053-.48-.084-.319-.057-.636-.123-.953-.193-.632-.143-1.262-.286-1.882-.474s-1.23-.422-1.858-.59a3.924,3.924,0,0,0-1.892-.02,5.025,5.025,0,0,0-.893.3c-.143.064-.286.13-.422.2l-.2.116-.209.124-.413.252-.181.127c-.029.023-.061.04-.089.066l-.079.076a2.1,2.1,0,0,0-.513.7,2.3,2.3,0,0,0-.079,1.729,2.233,2.233,0,0,0,.463.779,2.641,2.641,0,0,0,.753.572Z" transform="translate(-417.334 -532.836)" fill="#6e293b"/>
    </g>
    <g id="Bed" transform="translate(-3920.389 2756.737)">
      <path id="Path_626" data-name="Path 626" d="M445.754,590.182h65.8a.794.794,0,0,0,.794-.794V583a.794.794,0,0,0-.794-.8l-63.338-1.5c-.439,0-3.255,1.858-3.255,2.286v6.383a.794.794,0,0,0,.794.8Z" transform="translate(-414.764 -572.638)" fill="#506f90"/>
      <path id="Path_636" data-name="Path 636" d="M.905,0H88.994A.888.888,0,0,1,89.9.869v.763a.888.888,0,0,1-.905.869H.905A.888.888,0,0,1,0,1.632V.869A.888.888,0,0,1,.905,0Z" transform="translate(100 38.417) rotate(180)" fill="#99a8b9"/>
      <path id="Path_627" data-name="Path 627" d="M653.978,664.49h2.443l7.8,3.341,7.8-3.341h2.443l-9.022,4.311,10.65,8.462h-2.442l-9.429-7.492-9.429,7.492H652.35L663,668.8Z" transform="translate(-593.337 -642.055)" fill="#99a8b9"/>
      <path id="Path_628" data-name="Path 628" d="M487.8,664.49h2.442l7.8,3.341,7.8-3.341h2.442l-9.022,4.311,10.651,8.462h-2.443l-9.429-7.492-9.429,7.492H486.17l10.651-8.462Z" transform="translate(-452.084 -642.055)" fill="#99a8b9"/>
      <path id="Path_629" data-name="Path 629" d="M272.441,541.208l24.464,7.542a.553.553,0,0,0,.692-.367l2.388-8.549a.553.553,0,0,0-.366-.693l-21.978-6.594a3.064,3.064,0,0,0-3.817,2.063l-1.75,5.906a.556.556,0,0,0,.367.693Z" transform="translate(-270.175 -532.417)" fill="#506f90"/>
      <path id="Path_630" data-name="Path 630" d="M258.969,592.678l.181-.572a.865.865,0,0,1,.433-.508.919.919,0,0,1,.679-.063l26.812,7.85a1.278,1.278,0,0,0,.543.042h70.5a.824.824,0,0,1,.572.228.765.765,0,0,1,.237.551v.937a.765.765,0,0,1-.237.552.824.824,0,0,1-.573.228H288.4c-3.424,0-28.845-8.178-28.845-8.178A.852.852,0,0,1,258.969,592.678Z" transform="translate(-258.93 -581.579)" fill="#506f90" opacity="0.5"/>
      <path id="Path_631" data-name="Path 631" d="M2.5,0h0V8.859H0V2.5A2.5,2.5,0,0,1,2.5,0Z" transform="translate(92.852 46.081) rotate(180)" fill="#506f90"/>
      <circle id="Ellipse_32" data-name="Ellipse 32" cx="1.52" cy="1.52" r="1.52" transform="translate(87.911 44.56)" fill="#454851"/>
      <circle id="Ellipse_33" data-name="Ellipse 33" cx="0.907" cy="0.907" r="0.907" transform="translate(88.524 45.173)" fill="#9d9f9f"/>
      <path id="Path_632" data-name="Path 632" d="M852.392,803.1l1.143,1.818a2.149,2.149,0,0,0-2.355-3.6Z" transform="translate(-762.939 -757.018)" fill="#506f90"/>
      <path id="Path_633" data-name="Path 633" d="M2.5,0h0V8.859H0V2.5A2.5,2.5,0,0,1,2.5,0Z" transform="translate(23.545 46.081) rotate(180)" fill="#506f90"/>
      <circle id="Ellipse_34" data-name="Ellipse 34" cx="1.52" cy="1.52" r="1.52" transform="translate(18.514 44.56)" fill="#454851"/>
      <circle id="Ellipse_35" data-name="Ellipse 35" cx="0.907" cy="0.907" r="0.907" transform="translate(19.142 45.173)" fill="#9d9f9f"/>
      <path id="Path_634" data-name="Path 634" d="M387.209,803.1l1.143,1.818a2.148,2.148,0,0,0-2.352-3.6Z" transform="translate(-367.138 -757.023)" fill="#506f90"/>
    </g>
  </g>
</svg>
