<svg xmlns="http://www.w3.org/2000/svg" width="70.937" height="100" viewBox="0 0 70.937 100">
  <g id="Group_269" data-name="Group 269" transform="translate(3749.725 -2514.845)">
    <path id="Path_637" data-name="Path 637" d="M430.232,546.152l-3.549-.356-.316-13.857,5.238.525Z" transform="translate(-4167.337 2061.866)" fill="#9e616a"/>
    <path id="Path_638" data-name="Path 638" d="M669.274,727.826l-11.442-1.147.015-.145a4.476,4.476,0,0,1,4.9-4.007h0l6.989.7Z" transform="translate(-4405.819 1883.723)" fill="#2f2e41"/>
    <path id="Path_642" data-name="Path 642" d="M721.264,624.2c-6.7,0-12.157-10.692-12.157-23.834a43.294,43.294,0,0,1,1.363-10.982c.126-.48.263-.956.407-1.416,2.223-7.161,6.106-11.436,10.388-11.436,6.7,0,12.157,10.692,12.157,23.834S727.968,624.2,721.264,624.2Zm0-47.086c-3.953,0-7.721,4.226-9.832,11.028-.141.451-.275.919-.4,1.389a42.713,42.713,0,0,0-1.344,10.834c0,12.823,5.193,23.254,11.575,23.254s11.576-10.431,11.576-23.252-5.193-23.252-11.576-23.252Z" transform="translate(-4441.555 1987.233)" fill="#3f3d56"/>
    <path id="Path_643" data-name="Path 643" d="M409.689,589.751l-13.414-1.371.054-.376,13.414,1.37Z" transform="translate(-4146 2022.111)" fill="#3f3d56"/>
    <path id="Path_644" data-name="Path 644" d="M750.124,638.156c-2.547,0-4.468-6.072-4.468-14.123s1.921-14.122,4.468-14.122,4.468,6.071,4.468,14.122S752.672,638.156,750.124,638.156Zm0-27.663c-1.869,0-3.886,5.177-3.886,13.54s2.017,13.541,3.886,13.541,3.886-5.177,3.886-13.541-2.017-13.541-3.886-13.541Z" transform="translate(-4467.335 1963.561)" fill="#3f3d56"/>
    <ellipse id="Ellipse_37" data-name="Ellipse 37" cx="1.614" cy="3.177" rx="1.614" ry="3.177" transform="translate(-3718.331 2588.075)" fill="#cacaca"/>
    <path id="Path_645" data-name="Path 645" d="M816.279,623.356c-6.913,0-12.537-10.862-12.537-24.213a43.538,43.538,0,0,1,1.346-10.938c.137-.523.282-1.029.431-1.507,2.285-7.369,6.307-11.769,10.76-11.769,6.913,0,12.537,10.862,12.537,24.214S823.192,623.356,816.279,623.356Zm0-47.845c-4.122,0-8.032,4.353-10.2,11.36-.147.47-.289.968-.424,1.48a42.956,42.956,0,0,0-1.327,10.791c0,13.032,5.363,23.633,11.955,23.633s11.955-10.6,11.955-23.632S822.871,575.511,816.279,575.511Z" transform="translate(-4507.603 1988.367)" fill="#3f3d56"/>
    <path id="Path_646" data-name="Path 646" d="M846.064,637.862c-2.547,0-4.468-6.071-4.468-14.122s1.921-14.122,4.468-14.122,4.468,6.071,4.468,14.122S848.612,637.862,846.064,637.862Zm0-27.663c-1.869,0-3.886,5.177-3.886,13.541s2.017,13.541,3.886,13.541,3.886-5.177,3.886-13.541S847.933,610.2,846.064,610.2Z" transform="translate(-4534.446 1963.77)" fill="#3f3d56"/>
    <ellipse id="Ellipse_38" data-name="Ellipse 38" cx="1.614" cy="3.177" rx="1.614" ry="3.177" transform="translate(-3689.52 2588.003)" fill="#cacaca"/>
    <path id="Path_648" data-name="Path 648" d="M700.575,352.614a2.925,2.925,0,0,0,2.175,3.923l1.482,10.289,4.04-3.587-2.027-9.221a2.941,2.941,0,0,0-5.67-1.4Z" transform="translate(-4435.603 2164.134)" fill="#ea9d7d"/>
    <path id="Path_649" data-name="Path 649" d="M494.987,348.208,521,348.113V358.36l-26.011,1.05Z" transform="translate(-4214.88 2202.271)" fill="#3f3d56"/>
    <path id="Path_650" data-name="Path 650" d="M466,555.155l-3.53-.509.285-13.858,5.21.752Z" transform="translate(-4192.435 2055.591)" fill="#9e616a"/>
    <path id="Path_651" data-name="Path 651" d="M703.848,736.542,692.466,734.9l.021-.144a4.477,4.477,0,0,1,5.069-3.791h0l6.952,1Z" transform="translate(-4430.032 1877.756)" fill="#2f2e41"/>
    <path id="Path_652" data-name="Path 652" d="M417.7,416.978l-.379-.021,1.149-20.874H442v.38H418.831Z" transform="translate(-4160.924 2165.14)" fill="#3f3d56"/>
    <rect id="Rectangle_287" data-name="Rectangle 287" width="0.38" height="16.193" transform="translate(-3740.803 2612.152) rotate(-80.427)" fill="#3f3d56"/>
    <path id="Path_653" data-name="Path 653" d="M711.081,612.069q-.214.686-.4,1.4l-.4.044-12.349,1.373-28.289-2.848,29.429-1.519,11.637,1.5Z" transform="translate(-4414.195 1968.626)" fill="#3f3d56"/>
    <path id="Path_654" data-name="Path 654" d="M756.915,371.718s-4.112-1.311-6.756,3.933a100.807,100.807,0,0,1-6.755,11.013l2.35.524s.587-3.671,2.056-4.2l-.587,4.72s17.623,5.507,25.554-.524l-.294-1.836a1.711,1.711,0,0,1,1.175,1.836l.881-.787a14.535,14.535,0,0,0-3.525-3.671c-1.735-1.377-2.331-4-2.536-5.634a6.465,6.465,0,0,0-1.758-3.713C764.962,371.567,761.761,369.635,756.915,371.718Z" transform="translate(-4465.324 2149.878)" fill="#2f2e41"/>
    <path id="Path_655" data-name="Path 655" d="M696.418,559.052l-.574,1.968s-11.56-2.7-13.065,4.282-3.571,28.595-3.571,28.595l5.837,1.154,5.543-23.56,22.452-4.717-1.47-12.2Z" transform="translate(-4420.977 2002.83)" fill="#854d5c"/>
    <path id="Path_657" data-name="Path 657" d="M747.984,447.928l-4.367-.545-3.211,7.58s-4.479,27.83-3.34,28.21a5.134,5.134,0,0,0,1.994.285l21.554,1.122a27.732,27.732,0,0,0,.582-7.564c-.38-3.228,4.065-20.9,4.065-20.9l-.854-8.069-3.637-.067-2.618-2.036-7.286-.023Z" transform="translate(-4460.856 2090.673)" fill="#99a8b9"/>
    <path id="Path_656" data-name="Path 656" d="M730.111,567.723s-15.569-3.195-16.708,4.51.57,22.364.759,22.74-.759,7.329-.759,7.329l6.835.94s4.367-20.485,2.468-25.747l12.846-.786a8.78,8.78,0,0,0,8.312-8.129,4.034,4.034,0,0,0-1.792-4.052c-4.557-2.631-12.911-2.631-12.911-2.631Z" transform="translate(-4444.17 1998.032)" fill="#854d5c"/>
    <circle id="Ellipse_39" data-name="Ellipse 39" cx="6.835" cy="6.835" r="6.835" transform="translate(-3713.197 2526.868)" fill="#ea9d7d"/>
    <path id="Path_658" data-name="Path 658" d="M465.615,243.795l-.19-1.139-5.316-6.455-5.458-18.066-5.236,5.527,5.568,17.665,7.594,9.683Z" transform="translate(-4183.191 2301.159)" fill="#8398b0"/>
    <path id="Path_659" data-name="Path 659" d="M765.655,394.718s2.35-3.231,4.406-3.818,2.35-3.525,2.35-3.525,5.287,5.874,8.518,6.168.294-7.049.294-7.049l-5.875-1.469-5.581.587-4.406,2.937Z" transform="translate(-4481.004 2139.802)" fill="#2f2e41"/>
    <path id="Path_660" data-name="Path 660" d="M540.543,409.475l-.184-7.791H522.69l-.565,20.89-.38-.01.574-21.26h18.405l.006.184.19,7.974Z" transform="translate(-4233.746 2161.133)" fill="#3f3d56"/>
    <path id="Path_661" data-name="Path 661" d="M584.128,357.494h-.38V343l6.129,1.779-.106.365-5.643-1.638Z" transform="translate(-4277.255 2205.929)" fill="#3f3d56"/>
    <path id="Path_662" data-name="Path 662" d="M594.191,341.913l3.987,1.519-.76,2.088-3.228-1.329Z" transform="translate(-4284.662 2207.391)" fill="#3f3d56"/>
    <path id="Path_663" data-name="Path 663" d="M540.021,398.041v3.038h11.312v-2.836Z" transform="translate(-4246.716 2165.213)" fill="#3f3d56"/>
    <path id="Path_664" data-name="Path 664" d="M440.164,392.82v3.038h11.312v-2.836Z" transform="translate(-4176.75 2169.139)" fill="#3f3d56"/>
    <path id="Path_665" data-name="Path 665" d="M766.889,521.534Z" transform="translate(-4482.339 2035.866)" fill="#3f3d56"/>
    <path id="Path_666" data-name="Path 666" d="M548.944,338l-.57,10.822-8.354,1.709,7.594-3.038Z" transform="translate(-4246.765 2209.838)" fill="#506f90" opacity="0.15"/>
    <path id="Path_669" data-name="Path 669" d="M754.522,536.2a2.925,2.925,0,0,0,4.169-1.655l10.394-.154-3.04-4.465-9.4.831a2.941,2.941,0,0,0-2.118,5.444Z" transform="translate(-4472.346 2029.112)" fill="#ea9d7d"/>
    <path id="Path_670" data-name="Path 670" d="M788.639,454.069l1.709-1.329s2.848-1.519,3.418,3.8,4.747,22.973.57,23.163-19.754.609-19.754.609L774,475.073l15.4-1.448Z" transform="translate(-4486.926 2086.345)" fill="#8398b0"/>
  </g>
</svg>
