<svg xmlns="http://www.w3.org/2000/svg" width="100" height="67.091" viewBox="0 0 100 67.091">
  <g id="patient_svg" data-name="patient svg" transform="translate(4119.472 -1736.78)">
    <g id="Group_264" data-name="Group 264" transform="translate(-4119.472 1739.835)">
      <path id="Path_382" data-name="Path 382" d="M351.892,454.911l2.549,8.828,32.568-.575-.285-16.175c-.226-12.8-9.274-23.846-22.078-23.62s-20.944,11.05-20.718,23.853l1.86,16.67,5.31-.094Z" transform="translate(-339.634 -423.365)" fill="#2f2e41"/>
      <path id="Path_695" data-name="Path 695" d="M14.612,0A14.612,14.612,0,1,1,0,14.612,14.612,14.612,0,0,1,14.612,0Z" transform="translate(11.854 8.494)" fill="#ea9d7d"/>
      <path id="Path_383" data-name="Path 383" d="M384.28,438.933a5.667,5.667,0,0,0-1.007-3.127c-.067-.095-.135-.182-.2-.27a5.694,5.694,0,0,0-4.566-2.182l-10.5.189-10.5.182a5.687,5.687,0,0,0-5.572,5.775l2.5,5.032,1.439,2.891.236-.135c9.084-5.106,12.8-5.174,24.821-.425l.243.094.952-2.438,2.161-5.532Z" transform="translate(-341.817 -426.087)" fill="#2f2e41"/>
      <path id="Path_384" data-name="Path 384" d="M393.58,485.651c-3.134-3.127-13.738-1.884-13.738-1.884l-27.988,1.763c-6.207.459-11.8,5.43-13.826,7.443.324.317.655.628.993.925a39.178,39.178,0,0,0,46.075,4.377c3-1.79,6.836-3.936,9.24-6.442.952-.986,1.714-.966,2.559-2.047A8.432,8.432,0,0,0,393.58,485.651Z" transform="translate(-338.028 -439.758)" fill="#506f90"/>
    </g>
    <g id="Group_265" data-name="Group 265" transform="translate(-4077.003 1736.78)">
      <circle id="Ellipse_18" data-name="Ellipse 18" cx="14.682" cy="14.682" r="14.682" transform="translate(15.789 6.112)" fill="#ea9d7d"/>
      <path id="Path_385" data-name="Path 385" d="M356.531,649.709s1.247-2.191.957-9.509,10.854-3.179,20.166-3.877S385,648.541,385,648.541s.672-.768,2.11-7-1.827-12.446-1.827-12.446c-.962-6.551-6.146-4.451-6.146-4.451a2.719,2.719,0,0,1,2.017,3.05c-2.113-3.7-7.3-1.605-7.3-1.605-6.913-4.338-13.92,1.375-13.92,1.375-8.352,1.9-3.454,8.537-3.454,8.537C348.081,640.243,356.531,649.709,356.531,649.709Z" transform="translate(-339.951 -624.321)" fill="#2f2e41"/>
      <path id="Path_386" data-name="Path 386" d="M390.123,694.893a81.827,81.827,0,0,0-13.056-5.494l-.575-6.351-23.284-2.509-2.959,8.118-8.356,3.136a4.075,4.075,0,0,0-.848.442h-.009a8.252,8.252,0,0,0-3.833,1.325,8.486,8.486,0,0,0-2.049,1.837c1.131.857,2.3,1.652,3.515,2.411l.053.026c.344.212.7.424,1.051.627.636.38,1.29.742,1.944,1.086l.415.212c.954.495,1.926.963,2.924,1.4.2.088.424.177.627.265.017.009.026.009.044.018.469.194.937.38,1.413.557a46.424,46.424,0,0,0,4.788,1.537,49.238,49.238,0,0,0,12.693,1.661c1.564,0,3.11-.071,4.638-.221A49.029,49.029,0,0,0,379.54,702.9c.008,0,.018-.009.027-.009a48.241,48.241,0,0,0,6.174-2.447c.008-.009.026-.009.035-.018.451-.212.883-.442,1.325-.662l.212-.106c.353-.185.707-.371,1.061-.565.883-.486,1.749-1,2.6-1.546.238-.141.469-.291.707-.45.336-.221.671-.451,1-.689C391.862,695.873,391.006,695.369,390.123,694.893Z" transform="translate(-335.153 -639.64)" fill="#6e293b"/>
    </g>
  </g>
</svg>
