<svg xmlns="http://www.w3.org/2000/svg" width="33" height="20.625" viewBox="0 0 33 20.625">
  <path id="Icon_metro-eye" data-name="Icon metro-eye" d="M19.071,7.712a18.481,18.481,0,0,0-16.5,10.312,18.356,18.356,0,0,0,33,0,18.481,18.481,0,0,0-16.5-10.313Zm8.136,5.469a15.691,15.691,0,0,1,4.816,4.844,15.692,15.692,0,0,1-4.816,4.844,15.121,15.121,0,0,1-16.271,0,15.691,15.691,0,0,1-4.816-4.844,15.691,15.691,0,0,1,4.816-4.844c.126-.081.254-.159.382-.235a8.25,8.25,0,1,0,15.507,0q.193.115.382.235Zm-8.136,1.75a3.094,3.094,0,1,1-3.094-3.094A3.094,3.094,0,0,1,19.071,14.931Z" transform="translate(-2.571 -7.712)" fill="#253143" opacity="0.4"/>
</svg>
