<svg xmlns="http://www.w3.org/2000/svg" xmlns:xlink="http://www.w3.org/1999/xlink" width="246.74" height="657.679" viewBox="0 0 246.74 657.679">
  <defs>
    <filter id="Path_5" x="53.844" y="562.192" width="85.932" height="95.486" filterUnits="userSpaceOnUse">
      <feOffset dx="10" dy="10" input="SourceAlpha"/>
      <feGaussianBlur stdDeviation="10" result="blur"/>
      <feFlood flood-opacity="0.161"/>
      <feComposite operator="in" in2="blur"/>
      <feComposite in="SourceGraphic"/>
    </filter>
    <filter id="Path_6" x="91.225" y="562.193" width="85.932" height="95.486" filterUnits="userSpaceOnUse">
      <feOffset dx="10" dy="10" input="SourceAlpha"/>
      <feGaussianBlur stdDeviation="10" result="blur-2"/>
      <feFlood flood-opacity="0.161"/>
      <feComposite operator="in" in2="blur-2"/>
      <feComposite in="SourceGraphic"/>
    </filter>
    <filter id="Path_7" x="26.381" y="300.485" width="173.291" height="326.121" filterUnits="userSpaceOnUse">
      <feOffset dx="10" dy="10" input="SourceAlpha"/>
      <feGaussianBlur stdDeviation="10" result="blur-3"/>
      <feFlood flood-opacity="0.161"/>
      <feComposite operator="in" in2="blur-3"/>
      <feComposite in="SourceGraphic"/>
    </filter>
    <filter id="Path_13" x="79.09" y="157.768" width="167.217" height="151.807" filterUnits="userSpaceOnUse">
      <feOffset dy="5" input="SourceAlpha"/>
      <feGaussianBlur stdDeviation="9" result="blur-4"/>
      <feFlood flood-opacity="0.161"/>
      <feComposite operator="in" in2="blur-4"/>
      <feComposite in="SourceGraphic"/>
    </filter>
    <filter id="Path_14" x="121.268" y="95.472" width="125.473" height="143.721" filterUnits="userSpaceOnUse">
      <feOffset dy="5" input="SourceAlpha"/>
      <feGaussianBlur stdDeviation="9" result="blur-5"/>
      <feFlood flood-opacity="0.161"/>
      <feComposite operator="in" in2="blur-5"/>
      <feComposite in="SourceGraphic"/>
    </filter>
  </defs>
  <g id="Group_145" data-name="Group 145" transform="translate(-311 -297.161)">
    <path id="Path_3" data-name="Path 3" d="M897.957,235.99l-68.5.667c-3.22-15.851-14.038-57.443-4.3-68.787a16.674,16.674,0,0,1,17.563-14.92h0c10.617-16.62,28.3-14.124,40.255-3.745,12.029,4.151,16.565,11.525,14.979,21.532,8.909,7.8,10.552,17.285,6.553,28.085Z" transform="translate(-443.5 156.213)" fill="#2f2e41"/>
    <path id="Path_4" data-name="Path 4" d="M891.362,278.189l-49.422-6.843L832.055,256.9c13.616-9.032,18.434-21.647,12.166-38.778l34.216-.76c-1.6,15.255,3.442,27.067,17.488,34.215Z" transform="translate(-443.5 156.213)" fill="#ffb9b9"/>
    <g transform="matrix(1, 0, 0, 1, 311, 297.16)" filter="url(#Path_5)">
      <path id="Path_5-2" data-name="Path 5" d="M830.255,723.966l-1.89,25.835a8.224,8.224,0,0,0,8.7,8.809l13.27-.8a4.195,4.195,0,0,0,3.815-5.2l-7.366-29.463Z" transform="translate(-754.5 -140.95)" fill="#c3c3c3"/>
    </g>
    <g transform="matrix(1, 0, 0, 1, 311, 297.16)" filter="url(#Path_6)">
      <path id="Path_6-2" data-name="Path 6" d="M873.216,723.14,865.85,752.6a4.195,4.195,0,0,0,3.815,5.2l13.27.8a8.224,8.224,0,0,0,8.7-8.809l-1.89-25.835Z" transform="translate(-754.5 -140.95)" fill="#c3c3c3"/>
    </g>
    <g transform="matrix(1, 0, 0, 1, 311, 297.16)" filter="url(#Path_7)">
      <path id="Path_7-2" data-name="Path 7" d="M734.6,586.606l-17.908-1.8-17.828-190.57L692.128,584.2l-17.594-.63-29.653-263.08H758.172Z" transform="translate(-598.5 0)" fill="#506f90"/>
    </g>
    <circle id="Ellipse_1" data-name="Ellipse 1" cx="34.215" cy="34.215" r="34.215" transform="translate(385.514 318.07)" fill="#ffb9b9"/>
    <path id="Path_8" data-name="Path 8" d="M930.9,467.515l-138.383,1.521c20.537-78.181,32.821-150.8,11.405-200.731l34.216-16.728c16.5,17.208,34.871,15.434,54.745-1.521l32.695,8.364C919.978,323.891,922.488,394.011,930.9,467.515Z" transform="translate(-443.5 156.213)" fill="#506f90"/>
    <path id="Path_9" data-name="Path 9" d="M754.5,386.919l85.919,34.216,19.209,5.65a6.645,6.645,0,0,0,8.322-4.763h0a6.645,6.645,0,0,0-3.783-7.7l-19.946-6.113-60.067-34.976L796.7,340.158l-26.232-14.067Z" transform="translate(-443.5 156.213)" fill="#ffb9b9"/>
    <path id="Path_10" data-name="Path 10" d="M755.26,324.57c16.347,6.377,29.349,17.261,39.538,31.935l31.935-46.381L803.922,268.3Z" transform="translate(-443.5 156.213)" fill="#506f90"/>
    <path id="Path_11" data-name="Path 11" d="M901.792,190.527c-13.887-3.578-27.54-4.069-40.813.469-8.455,4.095-18.608,3.717-29.9.344V157.2l60.959,1.626Z" transform="translate(-443.5 156.213)" fill="#2f2e41"/>
    <path id="Path_12" data-name="Path 12" d="M840.134,347.053A10.145,10.145,0,0,0,830,357.187l4,83.732a10.145,10.145,0,0,0,10.134,10.134h45.732A10.145,10.145,0,0,0,900,440.919l4-83.732a10.145,10.145,0,0,0-10.134-10.134Z" transform="translate(-443.5 156.213)" fill="#3f3d56"/>
    <g transform="matrix(1, 0, 0, 1, 311, 297.16)" filter="url(#Path_13)">
      <path id="Path_13-2" data-name="Path 13" d="M969.89,380.593,895,410.413l-5.65,2.25c-.18.07-.36.13-.55.19l-18.93,5.57c-2.42.71-5.77-2.55-7.73-4.8a6.085,6.085,0,0,1-.16-7.93,6.742,6.742,0,0,1,.86-.83,5.589,5.589,0,0,1,2.5-1.1l18.91-3.72a6.335,6.335,0,0,0,1.93-.72l8.82-5.14,45.79-26.66a6.218,6.218,0,0,0,2.69-7.58l-8.74-23.05a6.211,6.211,0,0,1,2.87-7.68l14.48-7.76a6.206,6.206,0,0,1,8.94,3.9l12.57,47.88a6.219,6.219,0,0,1-3.71,7.36Z" transform="translate(-754.5 -140.95)" fill="#ffb9b9"/>
    </g>
    <g transform="matrix(1, 0, 0, 1, 311, 297.16)" filter="url(#Path_14)">
      <path id="Path_14-2" data-name="Path 14" d="M974.24,316.206c-16.347,6.377-29.349,17.261-39.538,31.935l-31.935-46.381,22.81-43.34Z" transform="translate(-754.5 -140.95)" fill="#506f90"/>
    </g>
    <path id="Path_15" data-name="Path 15" d="M886,226.526c-14.968,6.226-30.663,5.973-47,0,4.754-8.114-2.352-14.469-6-22.66l61-1.813C889.335,209.169,882.452,217.576,886,226.526Z" transform="translate(-443.5 156.213)" fill="#fff"/>
    <path id="Path_16" data-name="Path 16" d="M737.354,62.46l-.708-.707,1-1,5.974-6.972.76.65-6,7Z" transform="translate(-287.5 297.16)" fill="#fff"/>
    <rect id="Rectangle_118" data-name="Rectangle 118" width="1.001" height="7.81" transform="translate(384.676 356.151) rotate(-50.195)" fill="#fff"/>
    <rect id="Rectangle_119" data-name="Rectangle 119" width="19.558" height="1" transform="matrix(0.537, -0.844, 0.844, 0.537, 441.075, 381.998)" fill="#fff"/>
    <rect id="Rectangle_120" data-name="Rectangle 120" width="1" height="19.558" transform="translate(385.578 366.031) rotate(-32.471)" fill="#fff"/>
    <path id="Path_17" data-name="Path 17" d="M897,392.768v18.117l-6.307,2.512c-.2.078-.4.145-.614.212l-21.13,6.217c-2.7.792-6.441-2.846-8.628-5.358a6.792,6.792,0,0,1-.179-8.852,7.533,7.533,0,0,1,.96-.926,6.238,6.238,0,0,1,2.791-1.228L885,399.31a7.071,7.071,0,0,0,2.154-.8Z" transform="translate(-443.5 156.213)" fill="#fff"/>
    <path id="Path_18" data-name="Path 18" d="M906.14,328.149h-3.614c0-51.111-10.523-86.729-20.779-86.729l-.9-3.614c9.2,0,15.06,14.824,18.36,27.26C903.677,281.926,906.14,304.329,906.14,328.149Z" transform="translate(-443.5 156.213)" fill="#3f3d56"/>
    <path id="Path_19" data-name="Path 19" d="M823.025,315.5h-3.614c0-46.809,10.6-75.888,26.2-75.888l-.9,3.614C833.914,243.227,823.025,265.575,823.025,315.5Z" transform="translate(-443.5 156.213)" fill="#3f3d56"/>
    <circle id="Ellipse_2" data-name="Ellipse 2" cx="9.034" cy="9.034" r="9.034" transform="translate(451.799 476.231)" fill="#3f3d56"/>
    <path id="Path_20" data-name="Path 20" d="M808.57,337.183h-3.614c0-12.952,7.295-23.489,16.262-23.489v3.614C814.244,317.308,808.57,326.224,808.57,337.183Z" transform="translate(-443.5 156.213)" fill="#3f3d56"/>
    <path id="Path_21" data-name="Path 21" d="M837.479,337.183h-3.614c0-10.959-5.674-19.875-12.648-19.875v-3.614C830.185,313.694,837.479,324.231,837.479,337.183Z" transform="translate(-443.5 156.213)" fill="#3f3d56"/>
    <circle id="Ellipse_3" data-name="Ellipse 3" cx="3.614" cy="3.614" r="3.614" transform="translate(388.56 490.687)" fill="#3f3d56"/>
    <circle id="Ellipse_4" data-name="Ellipse 4" cx="3.614" cy="3.614" r="3.614" transform="translate(359.649 490.687)" fill="#3f3d56"/>
  </g>
</svg>
